<?xml version="1.0" encoding="UTF-8" standalone="no"?>
<svg width="1031px" height="860px" viewBox="0 0 1031 860" version="1.1" xmlns="http://www.w3.org/2000/svg" xmlns:xlink="http://www.w3.org/1999/xlink" xmlns:sketch="http://www.bohemiancoding.com/sketch/ns">
    <title>bad-diagram</title>
    <description>Created with Sketch (http://www.bohemiancoding.com/sketch)</description>
    <defs></defs>
    <g id="Page-1" stroke="none" stroke-width="1" fill="none" fill-rule="evenodd" sketch:type="MSPage">
        <rect id="Rectangle-6" stroke="#FFFFFF" fill="#111111" sketch:type="MSShapeGroup" x="0" y="0" width="1031" height="860"></rect>
        <rect id="Rectangle-1" fill="#D8D8D8" sketch:type="MSShapeGroup" x="123" y="479" width="160" height="168"></rect>
        <path d="M472,436.979466 L472,692" id="Line" sketch:type="MSShapeGroup"></path>
        <rect id="Rectangle-1" fill="#CC9393" sketch:type="MSShapeGroup" x="393" y="479" width="160" height="168"></rect>
        <text id="Client" fill="#FFFFFF" sketch:type="MSTextLayer" font-family="Courier" font-size="36" font-weight="normal">
            <tspan x="408" y="736" fill="#000000">Client</tspan>
        </text>
        <text id="Models" fill="#FFFFFF" sketch:type="MSTextLayer" font-family="Courier" font-size="36" font-weight="normal">
            <tspan x="683" y="736" fill="#000000">Models</tspan>
        </text>
        <rect id="Rectangle-1" fill="#E3CEAB" sketch:type="MSShapeGroup" x="123" y="479" width="160" height="168"></rect>
        <text id="API" fill="#FFFFFF" sketch:type="MSTextLayer" font-family="Courier" font-size="36" font-weight="normal">
            <tspan x="170" y="735" fill="#000000">API</tspan>
        </text>
        <circle id="Oval-1" fill="#8CD0D3" sketch:type="MSShapeGroup" cx="702" cy="469" r="26"></circle>
        <circle id="Oval-1" fill="#8CD0D3" sketch:type="MSShapeGroup" cx="702" cy="561" r="26"></circle>
        <path d="M702,671 C716.359404,671 728,659.359404 728,645 C728,630.640596 716.359404,619 702,619 C687.640596,619 676,630.640596 676,645 C676,659.359404 687.640596,671 702,671 Z" id="Oval-1-copy" stroke="#FFFFFF" fill="#8CD0D3" sketch:type="MSShapeGroup"></path>
        <circle id="Oval-1-copy" fill="#8CD0D3" sketch:type="MSShapeGroup" cx="790" cy="516" r="26"></circle>
        <circle id="Oval-1-copy" fill="#8CD0D3" sketch:type="MSShapeGroup" cx="790" cy="608" r="26"></circle>
        <path d="M313.5,571.5 L369.5,571.5" id="Line" sketch:type="MSShapeGroup"></path>
        <path id="Line-decoration-1" d="M369.5,571.5 C365.72,570.45 362.48,569.55 358.7,568.5 C358.7,570.6 358.7,572.4 358.7,574.5 C362.48,573.45 365.72,572.55 369.5,571.5 C369.5,571.5 369.5,571.5 369.5,571.5 Z"></path>
        <path d="M313.5,571.5 L369.5,571.5" id="Line" stroke="#FFFFFF" stroke-width="3" stroke-linecap="square" sketch:type="MSShapeGroup"></path>
        <path id="Line-decoration-1" d="M369.5,571.5 C365.72,570.45 362.48,569.55 358.7,568.5 C358.7,570.6 358.7,572.4 358.7,574.5 C362.48,573.45 365.72,572.55 369.5,571.5 C369.5,571.5 369.5,571.5 369.5,571.5 Z" stroke="#FFFFFF" stroke-width="3" stroke-linecap="square"></path>
        <path d="M593.5,540.5 L639.5,501.5" id="Line-copy" stroke="#FFFFFF" stroke-width="3" stroke-linecap="square" sketch:type="MSShapeGroup"></path>
        <path id="Line-copy-decoration-1" d="M639.265418,501.698885 C635.703177,503.34246 632.649828,504.751239 629.087587,506.394815 C630.445626,507.996604 631.60966,509.369567 632.967699,510.971356 C635.1719,507.725991 637.061216,504.94425 639.265418,501.698885 C639.265418,501.698885 639.265418,501.698885 639.265418,501.698885 Z" stroke="#FFFFFF" stroke-width="3" stroke-linecap="square"></path>
        <path d="M593.5,582.5 L639.134418,628.134418" id="Line-copy-2" stroke="#FFFFFF" stroke-width="3" stroke-linecap="square" sketch:type="MSShapeGroup"></path>
        <path id="Line-copy-2-decoration-1" d="M638.754835,627.754835 C636.824434,624.339509 635.169804,621.412087 633.239402,617.996761 C631.754478,619.481686 630.481686,620.754478 628.996761,622.239402 C632.412087,624.169804 635.339509,625.824434 638.754835,627.754835 C638.754835,627.754835 638.754835,627.754835 638.754835,627.754835 Z" stroke="#FFFFFF" stroke-width="3" stroke-linecap="square"></path>
        <path d="M593.5,560.5 L634.731056,560.5" id="Line-copy-3" stroke="#FFFFFF" stroke-width="3" stroke-linecap="square" sketch:type="MSShapeGroup"></path>
        <path id="Line-copy-3-decoration-1" d="M634.5,560.5 C630.72,559.45 627.48,558.55 623.7,557.5 C623.7,559.6 623.7,561.4 623.7,563.5 C627.48,562.45 630.72,561.55 634.5,560.5 C634.5,560.5 634.5,560.5 634.5,560.5 Z" stroke="#FFFFFF" stroke-width="3" stroke-linecap="square"></path>
        <rect id="Rectangle-1-copy" fill="#D8D8D8" sketch:type="MSShapeGroup" x="233" y="76" width="160" height="168"></rect>
        <text id="Models-copy" sketch:type="MSTextLayer" font-family="Courier" font-size="36" font-weight="normal" fill="#000000">
            <tspan x="527" y="333">Models</tspan>
        </text>
        <rect id="Rectangle-1-copy" fill="#E3CEAB" sketch:type="MSShapeGroup" x="233" y="76" width="160" height="168"></rect>
        <text id="API-copy" sketch:type="MSTextLayer" font-family="Courier" font-size="36" font-weight="normal" fill="#000000">
            <tspan x="280" y="332">API</tspan>
        </text>
        <circle id="Oval-1-copy" fill="#8CD0D3" sketch:type="MSShapeGroup" cx="546" cy="66" r="26"></circle>
        <circle id="Oval-1-copy" fill="#8CD0D3" sketch:type="MSShapeGroup" cx="546" cy="158" r="26"></circle>
        <path d="M546,268 C560.359404,268 572,256.359404 572,242 C572,227.640596 560.359404,216 546,216 C531.640596,216 520,227.640596 520,242 C520,256.359404 531.640596,268 546,268 Z" id="Oval-1-copy-2" fill="#8CD0D3" sketch:type="MSShapeGroup"></path>
        <circle id="Oval-1-copy-2" fill="#8CD0D3" sketch:type="MSShapeGroup" cx="634" cy="113" r="26"></circle>
        <circle id="Oval-1-copy-2" fill="#8CD0D3" sketch:type="MSShapeGroup" cx="634" cy="205" r="26"></circle>
        <path d="M437.5,137.5 L483.5,98.5" id="Line-copy-2" stroke="#FFFFFF" stroke-width="3" stroke-linecap="square" sketch:type="MSShapeGroup"></path>
        <path id="Line-copy-2-decoration-1" d="M483.265418,98.6988846 C479.703177,100.34246 476.649828,101.751239 473.087587,103.394815 C474.445626,104.996604 475.60966,106.369567 476.967699,107.971356 C479.1719,104.725991 481.061216,101.94425 483.265418,98.6988846 C483.265418,98.6988846 483.265418,98.6988846 483.265418,98.6988846 Z" stroke="#FFFFFF" stroke-width="3" stroke-linecap="square"></path>
        <path d="M437.5,179.5 L483.134418,225.134418" id="Line-copy-3" stroke="#FFFFFF" stroke-width="3" stroke-linecap="square" sketch:type="MSShapeGroup"></path>
        <path id="Line-copy-3-decoration-1" d="M482.754835,224.754835 C480.824434,221.339509 479.169804,218.412087 477.239402,214.996761 C475.754478,216.481686 474.481686,217.754478 472.996761,219.239402 C476.412087,221.169804 479.339509,222.824434 482.754835,224.754835 C482.754835,224.754835 482.754835,224.754835 482.754835,224.754835 Z" stroke="#FFFFFF" stroke-width="3" stroke-linecap="square"></path>
        <path d="M437.5,157.5 L478.731056,157.5" id="Line-copy-4" stroke="#FFFFFF" stroke-width="3" stroke-linecap="square" sketch:type="MSShapeGroup"></path>
        <path id="Line-copy-4-decoration-1" d="M478.5,157.5 C474.72,156.45 471.48,155.55 467.7,154.5 C467.7,156.6 467.7,158.4 467.7,160.5 C471.48,159.45 474.72,158.55 478.5,157.5 C478.5,157.5 478.5,157.5 478.5,157.5 Z" stroke="#FFFFFF" stroke-width="3" stroke-linecap="square"></path>
    </g>
</svg>